<?xml version="1.0" standalone="no"?>
<!DOCTYPE svg PUBLIC "-//W3C//DTD SVG 20010904//EN"
 "http://www.w3.org/TR/2001/REC-SVG-20010904/DTD/svg10.dtd">
<svg version="1.0" xmlns="http://www.w3.org/2000/svg"
 width="175.000000pt" height="229.000000pt" viewBox="0 0 175.000000 229.000000"
 preserveAspectRatio="xMidYMid meet">

<g transform="translate(0.000000,229.000000) scale(0.100000,-0.100000)"
fill="#000000" stroke="none">
<path d="M0 1145 l0 -1145 875 0 875 0 0 1145 0 1145 -875 0 -875 0 0 -1145z
m1199 238 c0 -24 -9 -32 -67 -61 -80 -39 -119 -41 -172 -6 -74 49 -154 49
-228 -1 -51 -34 -103 -33 -161 4 -70 45 -147 45 -212 1 -56 -38 -110 -40 -160
-6 -20 14 -48 28 -63 32 -21 5 -26 12 -26 35 l0 29 545 0 545 0 -1 -27z m-653
-115 c41 -28 58 -33 109 -33 51 0 68 5 111 33 28 17 63 32 77 32 15 0 57 -16
94 -36 58 -30 75 -35 115 -31 29 2 64 15 88 31 75 49 70 81 70 -448 0 -260 -3
-487 -6 -504 -4 -21 -15 -34 -33 -41 -14 -6 -46 -23 -71 -37 -53 -30 -84 -27
-145 13 -28 19 -57 28 -98 31 -52 4 -63 1 -110 -28 -69 -44 -115 -44 -181 -2
-70 45 -124 44 -213 -3 -76 -41 -98 -40 -171 6 -25 16 -52 29 -59 29 -11 0
-13 96 -13 505 0 337 3 505 10 505 6 0 29 -12 51 -27 27 -18 57 -28 92 -30 45
-3 60 1 112 31 75 44 107 45 171 4z m913 -127 c34 -19 78 -87 91 -142 50 -206
-129 -391 -259 -270 l-31 29 0 171 0 170 35 28 c53 43 102 47 164 14z m-904
-950 c70 -44 127 -43 213 5 74 42 102 41 166 -4 33 -23 50 -27 105 -27 53 0
72 5 99 24 18 13 36 21 38 18 12 -12 -32 -80 -65 -103 -61 -40 -127 -46 -495
-42 -364 4 -376 5 -429 56 -31 29 -62 81 -53 89 3 3 19 -5 37 -18 22 -16 51
-24 90 -27 50 -4 65 -1 106 24 26 16 55 32 63 36 26 13 75 1 125 -31z"/>
<path d="M590 1126 c-9 -12 -6 -24 14 -59 23 -39 26 -54 26 -145 0 -56 -4
-102 -8 -102 -20 0 -78 75 -87 113 -8 31 -16 42 -30 42 -14 0 -21 -8 -23 -27
-3 -21 -9 -27 -30 -30 -19 -2 -27 -9 -27 -23 0 -14 11 -22 42 -30 38 -9 113
-67 113 -87 0 -4 -46 -8 -102 -8 -91 0 -106 3 -146 26 -41 24 -45 25 -61 9
-15 -15 -14 -18 12 -39 l27 -22 -25 -22 c-15 -13 -22 -28 -19 -37 8 -21 23
-19 69 10 36 22 51 24 143 25 56 0 102 -4 102 -8 0 -20 -79 -81 -117 -92 -32
-8 -43 -16 -43 -30 0 -20 9 -24 43 -21 13 2 17 -5 17 -29 0 -26 3 -31 21 -28
16 2 25 15 35 47 12 40 67 111 86 111 4 0 8 -47 8 -105 0 -95 -2 -109 -25
-145 -38 -60 -9 -100 32 -44 l19 26 17 -26 c10 -14 24 -26 33 -26 26 0 27 29
0 74 -23 40 -26 55 -26 145 0 56 4 101 8 101 20 0 81 -79 92 -117 8 -32 16
-43 30 -43 20 0 24 9 20 43 -1 13 4 18 17 17 34 -4 43 0 43 20 0 14 -11 22
-42 30 -39 11 -118 72 -118 92 0 4 45 8 101 8 90 0 105 -3 145 -26 45 -26 74
-26 74 0 0 7 -12 22 -27 31 l-26 18 26 19 c57 42 18 71 -43 33 -36 -23 -50
-25 -145 -25 -58 0 -105 4 -105 8 0 19 71 74 111 86 32 10 45 19 47 35 3 18
-2 21 -28 21 -24 0 -31 4 -29 18 3 33 -1 42 -21 42 -14 0 -22 -11 -30 -42 -11
-39 -72 -118 -92 -118 -4 0 -8 46 -8 103 1 91 3 106 25 142 14 22 25 45 25 51
0 24 -30 23 -53 -2 l-24 -25 -17 25 c-19 30 -29 32 -46 12z m94 -371 c7 -19
-20 -46 -39 -39 -15 6 -20 35 -8 47 12 12 41 7 47 -8z"/>
</g>
</svg>
