<?xml version="1.0" standalone="no"?>
<!DOCTYPE svg PUBLIC "-//W3C//DTD SVG 20010904//EN"
 "http://www.w3.org/TR/2001/REC-SVG-20010904/DTD/svg10.dtd">
<svg version="1.0" xmlns="http://www.w3.org/2000/svg"
 width="227.000000pt" height="162.000000pt" viewBox="0 0 227.000000 162.000000"
 preserveAspectRatio="xMidYMid meet">

<g transform="translate(0.000000,162.000000) scale(0.100000,-0.100000)"
fill="#000000" stroke="none">
<path d="M0 810 l0 -810 1135 0 1135 0 0 810 0 810 -1135 0 -1135 0 0 -810z
m440 575 c0 -128 153 -128 167 -1 l6 46 102 0 102 0 5 -52 c6 -61 32 -88 85
-88 51 0 83 37 83 95 l0 45 104 0 103 0 6 -46 c6 -58 38 -94 83 -94 49 0 77
29 83 86 l6 49 105 0 105 0 6 -49 c13 -120 153 -114 166 7 l6 47 78 0 c44 0
79 -1 79 -3 0 -4 -269 -1328 -275 -1354 l-5 -23 -785 0 c-431 0 -786 3 -788 8
-2 4 58 311 134 682 76 371 138 678 139 683 0 4 23 7 50 7 l50 0 0 -45z m1640
-705 c66 -326 120 -600 120 -607 0 -10 -52 -13 -250 -13 -137 0 -250 4 -250 8
0 15 240 1196 246 1212 4 8 8 11 10 5 2 -5 57 -278 124 -605z"/>
<path d="M540 1198 c-15 -36 -191 -919 -184 -929 3 -5 234 -9 544 -9 504 0
539 1 544 18 18 59 186 919 182 929 -4 10 -113 13 -541 13 l-535 0 -10 -22z
m1030 -36 c0 -9 -138 -697 -160 -800 l-12 -52 -494 0 c-272 0 -494 2 -494 4 0
2 38 193 85 425 47 232 85 423 85 426 0 3 223 5 495 5 272 0 495 -4 495 -8z"/>
<path d="M699 987 c-92 -62 -118 -194 -43 -213 46 -12 77 7 92 53 15 46 33 58
63 43 33 -18 24 -57 -22 -88 -109 -72 -162 -146 -175 -242 -5 -36 -2 -50 14
-70 20 -25 23 -25 162 -25 137 0 142 1 161 24 25 30 24 66 -1 91 -16 16 -33
20 -96 20 -88 0 -91 8 -23 57 90 66 102 78 120 117 42 93 8 195 -83 242 -43
22 -129 18 -169 -9z"/>
<path d="M1047 993 c-16 -19 -42 -195 -35 -248 2 -21 -5 -36 -24 -56 -16 -15
-28 -36 -28 -46 0 -83 74 -174 156 -191 189 -40 321 185 191 327 -27 29 -93
60 -129 61 -21 0 -25 4 -21 20 5 18 14 20 74 20 56 0 73 4 89 20 24 24 26 57
4 88 -14 21 -22 22 -138 22 -104 0 -125 -3 -139 -17z m157 -309 c33 -33 4
-104 -42 -104 -24 0 -62 36 -62 60 0 10 -3 25 -6 33 -10 27 86 36 110 11z"/>
</g>
</svg>
