<?xml version="1.0" standalone="no"?>
<!DOCTYPE svg PUBLIC "-//W3C//DTD SVG 20010904//EN"
 "http://www.w3.org/TR/2001/REC-SVG-20010904/DTD/svg10.dtd">
<svg version="1.0" xmlns="http://www.w3.org/2000/svg"
 width="204.000000pt" height="216.000000pt" viewBox="0 0 204.000000 216.000000"
 preserveAspectRatio="xMidYMid meet">

<g transform="translate(0.000000,216.000000) scale(0.100000,-0.100000)"
fill="#000000" stroke="none">
<path d="M0 1080 l0 -1080 1020 0 1020 0 0 1080 0 1080 -1020 0 -1020 0 0
-1080z m750 1000 c0 -19 -7 -20 -125 -20 -118 0 -125 1 -125 20 0 19 7 20 125
20 118 0 125 -1 125 -20z m973 -329 c34 -94 28 -114 -35 -131 -56 -16 -107 3
-128 47 -19 41 -48 43 -61 4 -27 -76 -170 -73 -199 5 -5 13 -16 24 -25 24 -9
0 -20 -11 -25 -24 -29 -78 -172 -81 -199 -5 -13 39 -42 37 -61 -4 -33 -71
-156 -72 -186 -1 -18 44 -48 46 -63 4 -25 -74 -182 -72 -193 2 -5 37 -43 36
-56 -1 -13 -36 -44 -54 -97 -55 -46 -1 -95 25 -95 52 0 9 12 50 26 90 l27 72
671 0 671 0 28 -79z m-1173 -163 c45 -33 123 -35 181 -6 45 23 46 23 71 5 13
-10 49 -20 79 -23 44 -5 62 -1 100 18 45 23 46 23 71 5 13 -10 49 -20 79 -23
44 -4 63 -1 99 18 l45 23 45 -23 c37 -19 55 -23 99 -18 30 3 66 13 79 23 25
18 26 18 71 -5 37 -19 56 -23 99 -18 30 2 65 12 79 21 13 9 27 15 29 12 2 -2
26 -65 53 -140 43 -123 47 -139 34 -157 -52 -74 -196 -61 -226 21 -14 36 -48
36 -57 0 -21 -90 -208 -92 -235 -3 -13 44 -41 42 -60 -3 -35 -86 -195 -86
-230 0 -19 45 -47 47 -60 3 -27 -89 -214 -87 -235 3 -9 39 -43 36 -58 -5 -33
-89 -202 -86 -234 5 -13 37 -49 37 -58 0 -13 -56 -115 -89 -181 -57 -64 30
-65 41 -13 189 26 73 50 135 53 139 4 5 25 -1 46 -13 51 -26 133 -22 173 9 34
26 28 26 62 0z m-356 -363 c65 -33 136 -34 199 -1 l47 23 47 -23 c64 -33 143
-32 201 1 l43 24 47 -25 c63 -34 164 -31 213 5 26 19 35 22 48 12 67 -49 184
-55 242 -12 l31 23 48 -26 c64 -35 139 -36 202 -2 l46 24 48 -24 c63 -32 134
-32 198 0 32 16 49 20 51 12 3 -6 22 -61 44 -121 35 -100 38 -113 25 -137 -15
-29 -78 -58 -127 -58 -55 0 -120 39 -133 80 -17 51 -40 50 -60 0 -30 -75 -128
-101 -214 -57 -34 16 -48 31 -56 57 -17 51 -40 50 -60 0 -30 -75 -128 -101
-214 -57 -34 16 -48 31 -56 57 -17 51 -40 50 -60 0 -30 -75 -128 -101 -214
-57 -34 16 -48 31 -56 57 -17 51 -40 50 -60 0 -30 -75 -128 -101 -214 -57 -34
16 -48 31 -56 57 -17 51 -40 50 -60 0 -29 -73 -124 -100 -211 -61 -69 32 -70
44 -21 186 24 69 43 125 43 125 0 0 22 -11 49 -25z m216 -457 c36 -27 54 -33
95 -33 40 0 61 7 101 33 28 17 61 32 74 32 13 0 46 -15 74 -32 40 -26 61 -33
101 -33 41 0 59 6 95 33 24 17 56 32 70 32 15 0 49 -15 76 -32 39 -26 59 -33
99 -33 40 0 60 7 99 33 62 40 91 40 146 0 36 -27 54 -33 95 -33 40 0 61 7 101
33 61 39 88 40 136 7 21 -14 49 -30 63 -35 l25 -10 0 -258 0 -259 -61 -36
c-78 -46 -119 -48 -173 -7 -33 25 -49 30 -96 30 -47 0 -63 -5 -96 -30 -52 -40
-98 -40 -161 0 -65 42 -130 42 -193 0 -59 -39 -101 -39 -159 0 -24 17 -50 30
-58 30 -10 0 -13 32 -13 155 0 117 -4 165 -15 192 -40 96 -113 145 -214 145
-67 0 -118 -20 -163 -66 -56 -56 -62 -83 -68 -291 l-5 -190 -38 -3 c-29 -3
-49 4 -84 27 -26 17 -52 31 -60 31 -10 0 -13 51 -13 265 l0 265 23 9 c13 5 41
21 62 35 50 34 82 33 135 -6z m291 -151 c27 -15 52 -38 66 -63 22 -37 23 -50
23 -266 l0 -228 -170 0 -170 0 0 220 c0 241 4 263 57 313 54 51 126 60 194 24z"/>
<path d="M1115 687 c-3 -7 -4 -109 -3 -227 l3 -215 228 -3 227 -2 -2 227 -3
228 -223 3 c-175 2 -224 0 -227 -11z m203 -114 l-3 -78 -77 -3 -78 -3 0 81 0
80 80 0 81 0 -3 -77z m202 -3 l0 -80 -75 0 -75 0 0 80 0 80 75 0 75 0 0 -80z
m-200 -205 l0 -75 -80 0 -80 0 0 75 0 75 80 0 80 0 0 -75z m200 0 l0 -75 -75
0 -75 0 0 75 0 75 75 0 75 0 0 -75z"/>
<path d="M482 297 c-49 -52 -15 -127 56 -127 49 0 76 27 76 77 0 67 -86 100
-132 50z"/>
</g>
</svg>
