<?xml version="1.0" standalone="no"?>
<!DOCTYPE svg PUBLIC "-//W3C//DTD SVG 20010904//EN"
 "http://www.w3.org/TR/2001/REC-SVG-20010904/DTD/svg10.dtd">
<svg version="1.0" xmlns="http://www.w3.org/2000/svg"
 width="209.000000pt" height="244.000000pt" viewBox="0 0 209.000000 244.000000"
 preserveAspectRatio="xMidYMid meet">

<g transform="translate(0.000000,244.000000) scale(0.100000,-0.100000)"
fill="#000000" stroke="none">
<path d="M0 1220 l0 -1220 1045 0 1045 0 0 1220 0 1220 -1045 0 -1045 0 0
-1220z m1090 1090 c11 0 11 -3 2 -12 -7 -7 -12 -19 -12 -29 0 -12 -8 -16 -30
-15 -20 1 -30 6 -30 17 0 8 -5 20 -12 27 -9 9 -8 12 5 12 10 0 20 7 24 15 5
14 7 14 23 0 9 -8 23 -15 30 -15z m256 -100 c14 0 15 -3 6 -12 -7 -7 -12 -21
-12 -32 0 -17 -7 -21 -35 -22 -29 0 -34 3 -30 17 3 9 1 20 -5 24 -15 9 -12 25
5 25 9 0 18 7 22 16 6 16 7 16 18 0 7 -9 20 -16 31 -16z m-523 4 c19 -7 22
-20 7 -29 -5 -3 -10 -14 -10 -23 0 -12 -8 -17 -30 -17 -22 0 -30 5 -30 17 0 9
-4 20 -10 23 -5 3 -10 9 -10 13 0 10 43 30 55 26 6 -2 18 -7 28 -10z m-373
-314 l0 -30 -195 0 -195 0 0 30 0 30 195 0 195 0 0 -30z m1000 0 l0 -30 -465
0 -465 0 0 30 0 30 465 0 465 0 0 -30z m580 0 l0 -30 -260 0 -260 0 0 30 0 30
260 0 260 0 0 -30z m-1570 -96 c0 -3 -11 -15 -25 -26 -30 -24 -32 -60 -5 -95
11 -14 20 -29 20 -33 0 -5 -20 -20 -44 -34 -43 -25 -51 -26 -195 -26 l-151 0
0 110 0 110 200 0 c110 0 200 -3 200 -6z m990 -4 c0 -5 -6 -13 -14 -17 -7 -4
-18 -18 -25 -30 -12 -24 -5 -49 27 -86 8 -9 13 -19 11 -21 -2 -2 -25 -15 -50
-30 l-46 -26 -322 0 -321 0 -36 55 c-36 57 -67 78 -100 69 -14 -4 -25 6 -42
38 -12 24 -22 46 -22 51 0 4 211 7 470 7 290 0 470 -4 470 -10z m590 -100 l0
-110 -169 0 -170 0 -31 55 c-31 54 -60 73 -102 66 -16 -2 -58 62 -58 89 0 7
88 10 265 10 l265 0 0 -110z m-1540 -3 c0 -5 -7 -4 -15 3 -8 7 -15 20 -15 29
1 13 3 13 15 -3 8 -11 15 -24 15 -29z m989 16 c13 -28 13 -28 -8 -9 -22 20
-27 36 -13 36 5 0 14 -12 21 -27z m-856 -104 c16 -28 26 -53 23 -56 -19 -20
-251 -151 -258 -147 -14 9 -58 82 -58 96 0 14 226 156 250 157 8 1 28 -22 43
-50z m993 6 c14 -25 24 -51 21 -58 -4 -11 -237 -157 -250 -157 -3 0 -19 23
-37 51 -23 38 -28 55 -20 63 17 17 234 145 247 146 7 0 24 -20 39 -45z m-1336
-107 c0 -38 51 -132 79 -148 11 -5 27 -10 37 -10 16 0 43 -26 44 -42 0 -5 -45
-8 -100 -8 l-100 0 0 120 c0 113 1 120 20 120 16 0 20 -7 20 -32z m993 8 c-9
-46 61 -151 109 -164 17 -4 38 -18 46 -31 l16 -23 -70 5 c-42 3 -99 16 -144
33 -68 26 -87 28 -195 28 -96 0 -132 -4 -180 -21 -33 -12 -60 -21 -61 -20 0 1
-26 44 -57 96 -30 51 -53 100 -50 107 4 11 59 14 298 14 l292 0 -4 -24z m567
-96 l0 -120 -25 0 c-14 0 -25 5 -25 11 0 6 -25 53 -55 104 -32 56 -52 100 -49
109 5 13 22 16 80 16 l74 0 0 -120z m-1092 -135 c-3 -3 -9 2 -12 12 -6 14 -5
15 5 6 7 -7 10 -15 7 -18z m380 13 c-3 -7 -13 -37 -23 -65 l-19 -53 -47 0 -46
0 -22 56 c-11 31 -21 60 -21 65 0 5 41 9 91 9 69 0 90 -3 87 -12z m622 -23 c0
-5 -5 -3 -10 5 -5 8 -10 20 -10 25 0 6 5 3 10 -5 5 -8 10 -19 10 -25z m-841
-47 c11 -34 20 -62 18 -63 -1 0 -19 -8 -40 -18 l-38 -17 -24 27 c-16 17 -23
36 -20 48 3 11 5 29 5 41 0 18 33 40 67 43 6 1 21 -27 32 -61z m352 36 l58
-26 -45 -53 -45 -53 -37 15 c-20 8 -39 17 -41 18 -3 4 27 101 36 118 6 10 10
10 74 -19z m-774 -36 c6 -15 5 -39 -4 -77 -19 -83 -16 -115 12 -149 46 -54 31
-62 -121 -62 l-134 0 0 155 0 155 118 0 c113 0 119 -1 129 -22z m991 10 c13
-13 17 -68 5 -68 -7 0 -73 69 -73 76 0 10 57 3 68 -8z m362 -143 l0 -155 -140
0 c-87 0 -140 4 -140 10 0 6 16 10 36 10 25 0 43 8 63 28 36 35 130 196 138
233 4 20 12 29 24 29 18 0 19 -10 19 -155z m-403 22 c-1 -4 -28 -20 -60 -34
-58 -26 -58 -26 -78 -7 -19 20 -19 20 23 71 l43 51 38 -36 c20 -20 36 -40 34
-45z m-662 -39 c-34 -27 -49 -15 -29 23 15 29 16 30 34 14 19 -17 19 -18 -5
-37z m397 14 c58 -25 114 -76 141 -126 21 -40 22 -53 25 -393 l3 -353 -29 0
-30 0 15 43 c24 67 1 188 -44 239 -23 26 -53 6 -53 -35 0 -53 -45 -99 -65 -66
-4 6 11 48 34 93 63 126 54 193 -35 276 -66 60 -101 52 -81 -19 12 -45 2 -107
-25 -143 l-20 -30 -29 35 c-36 44 -94 81 -115 73 -13 -5 -15 -16 -9 -55 8 -57
-7 -121 -41 -170 -38 -56 -50 -127 -31 -189 l15 -52 -29 0 -29 0 0 338 c0 208
4 352 11 376 12 43 78 120 123 143 90 47 212 53 298 15z m-586 -38 c39 -19 40
-38 1 -42 -16 -2 -34 5 -46 17 -41 41 -17 54 45 25z m1012 -10 c12 -8 20 -19
17 -24 -16 -26 -95 5 -95 37 0 18 40 11 78 -13z m-128 -18 c5 -13 14 -27 19
-31 6 -3 11 -15 11 -26 0 -17 -7 -19 -58 -19 -54 0 -60 2 -71 26 -6 15 -10 28
-9 29 8 7 84 44 91 45 4 0 12 -11 17 -24z m-763 -47 c-10 -26 -16 -29 -57 -29
l-45 1 32 14 c18 7 37 22 44 33 20 32 39 17 26 -19z m-189 -246 l3 -153 -141
0 -140 0 0 155 0 156 138 -3 137 -3 3 -152z m1322 2 l0 -155 -140 0 -140 0 0
155 0 155 140 0 140 0 0 -155z m-1160 105 l0 -40 -55 0 -55 0 0 40 0 40 55 0
55 0 0 -40z m830 0 l0 -40 -60 0 -60 0 0 40 0 40 60 0 60 0 0 -40z m-830 -145
l0 -45 -55 0 -55 0 0 45 0 45 55 0 55 0 0 -45z m830 0 l0 -45 -60 0 -60 0 0
45 0 45 60 0 60 0 0 -45z m-370 -17 c28 -47 25 -73 -21 -163 -47 -93 -49 -137
-9 -167 32 -24 85 -11 117 29 l23 28 1 -35 c2 -61 -3 -94 -17 -122 l-15 -28
-180 0 -180 0 -15 35 c-20 49 -18 114 6 155 36 63 53 104 58 148 4 41 5 42 23
26 11 -10 23 -31 27 -48 12 -46 38 -44 86 6 40 42 66 100 66 147 0 29 7 26 30
-11z m-460 -128 l0 -40 -55 0 -55 0 0 40 0 40 55 0 55 0 0 -40z m830 0 l0 -40
-60 0 -60 0 0 40 0 40 60 0 60 0 0 -40z m-1000 -175 l0 -155 -135 0 -135 0 0
155 0 155 135 0 135 0 0 -155z m1330 0 l0 -155 -140 0 -140 0 0 155 0 155 140
0 140 0 0 -155z m-1160 25 l0 -40 -55 0 -55 0 0 40 0 40 55 0 55 0 0 -40z
m830 0 l0 -40 -60 0 -60 0 0 40 0 40 60 0 60 0 0 -40z m-830 -140 l0 -40 -55
0 -55 0 0 40 0 40 55 0 55 0 0 -40z m830 0 l0 -40 -60 0 -60 0 0 40 0 40 60 0
60 0 0 -40z m430 -145 l0 -55 -900 0 -900 0 0 55 0 55 900 0 900 0 0 -55z"/>
</g>
</svg>
