<?xml version="1.0" standalone="no"?>
<!DOCTYPE svg PUBLIC "-//W3C//DTD SVG 20010904//EN"
 "http://www.w3.org/TR/2001/REC-SVG-20010904/DTD/svg10.dtd">
<svg version="1.0" xmlns="http://www.w3.org/2000/svg"
 width="216.000000pt" height="182.000000pt" viewBox="0 0 216.000000 182.000000"
 preserveAspectRatio="xMidYMid meet">

<g transform="translate(0.000000,182.000000) scale(0.100000,-0.100000)"
fill="#000000" stroke="none">
<path d="M0 910 l0 -910 1080 0 1080 0 0 910 0 910 -1080 0 -1080 0 0 -910z
m1910 481 l0 -368 -40 -27 -40 -26 -25 50 c-31 62 -31 101 0 165 33 66 33 134
0 200 -31 64 -31 103 0 165 27 53 34 119 13 121 -39 3 -78 -6 -118 -27 -57
-31 -88 -30 -151 2 -36 18 -67 25 -104 25 -37 0 -68 -7 -104 -25 -63 -33 -90
-33 -159 0 -35 17 -73 26 -102 26 -29 0 -67 -9 -102 -26 -69 -33 -96 -33 -161
0 -68 35 -136 35 -205 0 -64 -32 -95 -33 -152 -2 -40 21 -79 30 -117 27 -22
-2 -15 -68 12 -121 31 -62 31 -101 0 -165 -33 -67 -33 -135 0 -197 32 -60 32
-106 0 -168 l-25 -50 -40 26 -40 27 0 368 0 369 830 0 830 0 0 -369z m-1468
204 c68 -32 121 -32 184 0 64 32 119 32 180 0 60 -32 114 -32 182 0 30 14 71
25 92 25 21 0 62 -11 92 -25 68 -32 122 -32 182 0 61 32 116 32 180 0 63 -32
116 -32 185 0 30 14 56 24 58 21 2 -2 -8 -25 -22 -51 -33 -62 -33 -123 0 -193
14 -30 25 -69 25 -87 0 -18 -11 -57 -25 -87 -32 -69 -32 -125 0 -188 14 -27
25 -55 25 -63 0 -17 -124 -107 -149 -107 -10 0 -49 -11 -85 -25 -37 -14 -82
-25 -102 -25 -19 0 -57 11 -84 25 -65 33 -128 33 -195 1 l-50 -25 -3 56 c-2
30 -1 57 1 59 2 2 63 -5 136 -16 73 -11 136 -18 142 -15 16 10 10 28 -41 119
-28 49 -50 92 -50 97 0 5 11 9 24 9 14 0 28 5 31 11 4 6 -25 58 -64 117 -52
78 -67 108 -56 110 8 2 15 11 15 21 0 23 -150 225 -170 229 -17 2 -170 -205
-170 -231 0 -8 7 -17 15 -19 11 -2 -3 -31 -54 -107 -38 -57 -67 -110 -64 -117
3 -8 16 -14 29 -14 13 0 24 -5 24 -10 0 -6 -22 -50 -50 -98 -51 -90 -57 -107
-41 -117 6 -3 69 4 142 15 73 11 134 20 135 20 2 0 4 -27 4 -60 l0 -59 -52 24
c-70 33 -134 33 -198 0 -27 -14 -65 -25 -84 -25 -20 0 -65 11 -102 25 -36 14
-74 25 -83 25 -23 0 -151 90 -151 106 0 8 11 37 25 64 16 31 25 66 25 95 0 29
-9 64 -25 95 -32 62 -32 104 0 172 33 70 33 131 0 192 -36 67 -37 65 37 31z
m683 -146 c28 -37 35 -53 26 -62 -19 -19 -13 -35 54 -135 62 -92 64 -97 43
-102 -36 -9 -33 -35 17 -121 26 -44 44 -83 42 -86 -5 -5 -150 14 -177 23 -10
4 -6 12 18 30 35 27 42 61 16 71 -9 3 -25 1 -35 -6 -35 -21 -22 16 16 46 19
15 35 36 35 46 0 23 -28 33 -51 18 -33 -20 -22 10 17 50 23 24 34 43 31 53 -7
19 -38 21 -55 4 -9 -9 -12 -1 -12 39 0 36 -4 53 -15 57 -30 11 -45 -5 -45 -50
0 -43 0 -43 -30 -38 -47 10 -50 -20 -6 -65 39 -40 50 -70 17 -50 -23 15 -51 5
-51 -18 0 -10 16 -31 35 -46 38 -30 51 -67 16 -46 -10 7 -26 9 -35 6 -26 -10
-19 -44 16 -71 24 -18 28 -26 18 -30 -25 -9 -171 -28 -176 -23 -2 2 16 41 41
86 50 87 53 112 17 121 -21 5 -19 10 43 102 67 100 73 116 54 135 -9 9 -2 25
26 62 20 28 40 51 45 51 5 0 25 -23 45 -51z m901 -340 c-30 -22 -57 -39 -60
-39 -3 0 -6 39 -6 86 l0 85 60 -47 60 -47 -54 -38z m-1826 41 c0 -44 -3 -80
-6 -80 -13 0 -105 73 -102 80 4 11 91 80 101 80 4 0 7 -36 7 -80z m263 -339
c213 -151 386 -276 384 -277 -5 -5 -739 -425 -751 -430 -32 -12 -36 42 -36
517 0 259 4 469 8 467 5 -1 182 -126 395 -277z m1637 -192 c0 -439 -3 -490
-25 -517 -2 -2 -175 95 -385 215 -334 191 -379 220 -363 230 10 7 185 132 388
277 204 145 373 265 378 265 4 1 7 -211 7 -470z m-1118 146 c32 -15 71 -25 98
-25 27 0 66 10 98 25 69 32 110 32 172 -1 40 -21 60 -25 105 -22 30 1 55 2 55
1 0 -1 -26 -20 -57 -42 l-58 -41 -315 0 -315 0 -58 41 c-31 22 -57 41 -57 42
0 1 26 1 57 -1 47 -3 67 2 103 22 58 32 105 32 172 1z m328 -159 c0 -3 -52
-41 -115 -86 l-115 -82 -115 82 c-63 45 -115 83 -115 86 0 2 104 4 230 4 127
0 230 -2 230 -4z m-325 -166 c46 -33 88 -60 95 -60 7 0 50 27 96 61 l84 60
382 -218 c319 -182 377 -219 357 -224 -31 -9 -1807 -9 -1838 0 -20 5 37 42
355 223 208 120 381 218 382 218 2 0 41 -27 87 -60z"/>
<path d="M630 1500 c0 -24 29 -38 40 -20 12 19 1 40 -21 40 -12 0 -19 -7 -19
-20z"/>
<path d="M1487 1507 c-8 -20 9 -41 27 -34 23 9 21 47 -3 47 -10 0 -21 -6 -24
-13z"/>
<path d="M716 1301 c-10 -16 5 -42 23 -39 21 4 21 42 -1 46 -9 2 -19 -1 -22
-7z"/>
<path d="M1404 1295 c-4 -9 -2 -21 4 -27 15 -15 44 -1 40 19 -4 23 -36 29 -44
8z"/>
<path d="M514 1195 c-7 -18 3 -35 22 -35 20 0 30 30 13 41 -20 12 -29 11 -35
-6z"/>
<path d="M1611 1201 c-19 -12 -6 -41 19 -41 16 0 21 5 18 22 -3 25 -17 32 -37
19z"/>
<path d="M643 1003 c-18 -6 -16 -40 1 -46 8 -3 20 1 27 9 10 12 9 18 -2 28 -8
8 -20 12 -26 9z"/>
<path d="M1487 986 c-7 -18 11 -36 29 -29 21 8 17 43 -5 43 -10 0 -21 -6 -24
-14z"/>
</g>
</svg>
