<?xml version="1.0" standalone="no"?>
<!DOCTYPE svg PUBLIC "-//W3C//DTD SVG 20010904//EN"
 "http://www.w3.org/TR/2001/REC-SVG-20010904/DTD/svg10.dtd">
<svg version="1.0" xmlns="http://www.w3.org/2000/svg"
 width="166.000000pt" height="231.000000pt" viewBox="0 0 166.000000 231.000000"
 preserveAspectRatio="xMidYMid meet">

<g transform="translate(0.000000,231.000000) scale(0.100000,-0.100000)"
fill="#000000" stroke="none">
<path d="M0 1155 l0 -1155 830 0 830 0 0 1155 0 1155 -830 0 -830 0 0 -1155z
m766 1094 c153 -28 300 -140 368 -280 37 -77 57 -159 38 -159 -5 0 -34 -18
-63 -40 -59 -44 -81 -48 -120 -22 -87 58 -96 62 -139 62 -38 0 -55 -7 -99 -40
-29 -22 -63 -40 -75 -40 -12 0 -47 18 -76 40 -43 32 -62 40 -97 40 -50 0 -73
-10 -121 -51 -45 -39 -77 -37 -140 10 -28 22 -57 41 -63 43 -30 10 37 177 102
258 47 58 138 124 207 150 105 40 178 47 278 29z m-472 -566 c49 -8 76 1 127
42 56 44 95 46 141 6 46 -40 71 -51 113 -51 42 0 67 11 113 51 46 41 88 39
142 -6 71 -60 132 -60 209 0 l46 36 3 -227 c2 -198 0 -229 -14 -245 -9 -10
-13 -23 -9 -28 12 -21 40 -11 82 31 28 27 43 37 43 26 0 -30 40 -67 83 -75 38
-8 42 -12 48 -46 7 -46 34 -77 68 -77 22 0 2 -24 -142 -168 l-167 -167 0 -133
0 -132 -510 0 -510 0 0 613 c0 338 3 616 6 620 4 3 26 -10 49 -29 24 -19 59
-38 79 -41z m1215 -278 c69 -35 104 -113 82 -185 -15 -50 -28 -59 -76 -51 -38
6 -40 8 -46 49 -7 53 -16 62 -76 77 -47 12 -48 13 -51 54 -3 39 -1 42 30 56
43 19 102 19 137 0z m-1281 -1142 l-3 -208 -85 0 -85 0 -3 120 c-5 176 3 222
43 262 29 29 40 33 84 33 l51 0 -2 -207z m280 0 l-3 -208 -112 -3 -113 -3 0
211 0 210 115 0 115 0 -2 -207z m282 -3 l0 -210 -115 0 -115 0 0 210 0 210
115 0 115 0 0 -210z m280 0 l0 -211 -112 3 -113 3 -3 208 -2 207 115 0 115 0
0 -210z m169 195 c47 -24 56 -62 56 -240 l0 -160 -85 0 -85 0 -3 208 -2 207
45 0 c25 0 59 -7 74 -15z"/>
<path d="M614 1516 c-3 -8 6 -32 20 -55 24 -37 26 -50 26 -146 0 -58 -4 -105
-9 -105 -20 0 -88 88 -95 124 -6 31 -11 37 -29 34 -17 -2 -22 -9 -20 -32 2
-24 -1 -27 -19 -22 -26 6 -49 -10 -41 -30 3 -7 24 -19 47 -25 37 -10 116 -71
116 -91 0 -4 -48 -8 -106 -8 -95 0 -110 2 -149 26 -25 14 -49 23 -55 19 -19
-12 -10 -40 17 -57 l27 -16 -27 -13 c-29 -13 -37 -46 -13 -55 8 -3 32 6 55 20
37 24 50 26 146 26 58 0 105 -4 105 -9 0 -20 -88 -88 -122 -95 -20 -4 -38 -13
-41 -21 -8 -20 18 -38 44 -30 18 6 20 4 14 -14 -8 -26 10 -52 30 -44 8 3 17
21 21 41 7 34 75 122 95 122 5 0 9 -47 9 -105 0 -95 -2 -109 -25 -145 -32 -50
-32 -70 -2 -70 16 0 28 9 36 27 l13 27 16 -27 c17 -27 45 -36 57 -17 4 6 -5
30 -19 55 -24 39 -26 54 -26 149 0 58 4 106 8 106 20 0 81 -79 91 -116 6 -23
18 -44 25 -47 20 -8 36 15 30 41 -5 18 -2 21 22 19 23 -2 30 3 32 20 3 18 -3
23 -34 29 -36 7 -124 75 -124 95 0 5 47 9 105 9 96 0 109 -2 146 -26 63 -39
100 -8 42 34 l-28 20 28 13 c29 13 37 46 13 55 -8 3 -32 -6 -53 -20 -35 -24
-46 -26 -145 -26 -60 0 -108 4 -108 8 0 20 79 81 118 92 36 9 43 15 40 33 -2
18 -9 21 -31 19 -25 -3 -28 0 -25 25 2 22 -1 29 -19 31 -18 3 -24 -4 -33 -40
-11 -39 -72 -118 -92 -118 -4 0 -8 47 -8 105 0 96 2 109 26 146 14 23 23 47
20 55 -9 24 -42 16 -55 -13 l-13 -28 -20 28 c-21 29 -45 35 -54 13z m100 -368
c8 -14 7 -21 -6 -34 -30 -30 -75 9 -48 42 16 18 39 15 54 -8z"/>
</g>
</svg>
