<?xml version="1.0" standalone="no"?>
<!DOCTYPE svg PUBLIC "-//W3C//DTD SVG 20010904//EN"
 "http://www.w3.org/TR/2001/REC-SVG-20010904/DTD/svg10.dtd">
<svg version="1.0" xmlns="http://www.w3.org/2000/svg"
 width="227.000000pt" height="225.000000pt" viewBox="0 0 227.000000 225.000000"
 preserveAspectRatio="xMidYMid meet">

<g transform="translate(0.000000,225.000000) scale(0.100000,-0.100000)"
fill="#000000" stroke="none">
<path d="M0 1125 l0 -1125 1135 0 1135 0 0 1125 0 1125 -1135 0 -1135 0 0
-1125z m606 820 l-50 -50 -51 50 -51 50 30 22 c16 12 38 35 49 50 l20 29 51
-51 51 -50 -49 -50z m1153 96 l51 -50 -30 -21 c-16 -11 -37 -34 -46 -49 l-17
-29 -51 51 -51 51 45 47 c25 26 46 47 47 48 1 1 24 -21 52 -48z m-653 -808
c-2 -2 -163 45 -359 104 -196 59 -350 110 -344 112 7 2 124 18 260 35 l249 31
96 235 97 235 3 -374 c1 -206 1 -376 -2 -378z m238 311 l14 -31 234 -27 c128
-15 244 -31 257 -35 17 -5 -65 -33 -320 -111 -189 -57 -350 -105 -356 -108
-10 -3 -13 76 -13 374 l1 379 84 -205 c47 -113 91 -219 99 -236z m-559 -274
c164 -50 300 -92 301 -93 2 -1 -83 -136 -188 -300 -105 -163 -193 -295 -195
-293 -2 2 12 110 32 240 19 130 35 245 35 254 0 10 -73 74 -181 157 -99 77
-183 143 -185 147 -3 4 15 1 38 -7 24 -8 178 -55 343 -105z m1085 117 c0 -2
-83 -68 -185 -147 -170 -131 -185 -145 -185 -174 0 -17 16 -134 34 -261 19
-126 34 -230 33 -231 -4 -4 -388 599 -384 603 3 2 157 51 343 108 187 57 340
104 342 104 1 1 2 -1 2 -2z m-560 -517 c90 -140 172 -268 184 -285 l21 -30
-29 19 c-16 10 -98 69 -184 132 -85 63 -161 114 -169 114 -7 0 -88 -55 -181
-123 -92 -68 -173 -127 -181 -131 -18 -11 -31 -33 157 259 85 132 166 257 179
279 14 21 28 34 32 30 5 -5 82 -124 171 -264z m783 51 l25 -13 -51 -52 -51
-51 -48 48 -47 47 44 45 c25 24 45 50 45 57 0 6 13 -6 29 -28 17 -22 41 -46
54 -53z m-1796 30 l52 -50 -49 -49 -49 -49 -28 32 c-15 17 -38 38 -51 46 l-22
16 47 50 c27 28 48 51 49 52 0 0 23 -21 51 -48z m863 -631 c11 -16 33 -37 49
-46 l28 -16 -51 -52 -51 -51 -50 49 -50 49 45 47 c25 26 48 48 52 49 4 0 16
-12 28 -29z"/>
</g>
</svg>
