<?xml version="1.0" standalone="no"?>
<!DOCTYPE svg PUBLIC "-//W3C//DTD SVG 20010904//EN"
 "http://www.w3.org/TR/2001/REC-SVG-20010904/DTD/svg10.dtd">
<svg version="1.0" xmlns="http://www.w3.org/2000/svg"
 width="148.000000pt" height="245.000000pt" viewBox="0 0 148.000000 245.000000"
 preserveAspectRatio="xMidYMid meet">

<g transform="translate(0.000000,245.000000) scale(0.100000,-0.100000)"
fill="#000000" stroke="none">
<path d="M0 1225 l0 -1225 740 0 740 0 0 1225 0 1225 -740 0 -740 0 0 -1225z
m798 881 c28 -56 52 -108 52 -113 0 -5 -9 -18 -19 -27 -15 -14 -24 -15 -40 -7
-39 21 -90 13 -123 -19 -26 -26 -29 -36 -26 -72 l4 -41 -93 -44 c-51 -23 -95
-43 -98 -43 -3 0 16 29 43 64 61 79 137 204 193 319 24 48 46 87 49 87 3 0 29
-47 58 -104z m147 -251 c27 -38 73 -95 102 -126 l53 -56 -23 -20 c-36 -34 -61
-36 -93 -10 -72 60 -116 62 -191 10 l-53 -36 -53 36 c-75 52 -119 50 -191 -10
-19 -16 -35 -22 -50 -17 -55 17 -47 26 58 69 57 23 120 52 140 64 27 17 43 21
71 15 66 -12 125 34 125 97 0 25 40 74 50 62 4 -5 28 -39 55 -78z m-181 52
c22 -16 18 -55 -6 -71 -40 -24 -80 44 -42 71 10 7 21 13 24 13 3 0 14 -6 24
-13z m-116 -302 c64 -53 114 -55 178 -4 41 33 75 37 95 12 8 -9 27 -24 42 -33
21 -13 44 -52 91 -156 34 -77 88 -183 119 -237 64 -111 65 -111 -64 -46 l-77
38 19 38 c36 73 -5 143 -84 143 -49 0 -76 -15 -91 -50 l-12 -29 -67 50 c-90
68 -267 228 -267 241 0 21 43 58 66 58 12 0 36 -11 52 -25z m-103 -136 c184
-187 460 -368 684 -450 l65 -23 -33 -14 c-18 -7 -62 -16 -97 -19 -59 -5 -66
-4 -100 23 -65 52 -88 64 -127 64 -44 0 -66 -10 -124 -56 -54 -44 -87 -44
-144 -1 -62 48 -83 57 -124 57 -43 0 -66 -11 -119 -57 -55 -46 -89 -44 -155 9
l-51 42 17 25 c52 79 136 233 183 340 30 66 57 121 60 121 3 0 32 -27 65 -61z
m449 -178 c23 -26 13 -59 -21 -67 -43 -11 -69 38 -37 70 21 21 37 20 58 -3z
m-399 -321 c17 -11 45 -31 64 -45 25 -18 47 -25 80 -25 46 0 60 7 140 65 43
32 69 31 112 0 19 -14 46 -33 61 -42 16 -10 28 -21 28 -25 0 -11 -110 -105
-174 -148 l-58 -40 -22 33 c-12 17 -34 38 -49 45 -85 41 -177 -76 -118 -149
l19 -23 -85 -38 c-47 -21 -89 -38 -94 -38 -5 0 -9 11 -9 25 0 14 -13 39 -29
57 -25 28 -36 33 -72 32 -35 -1 -48 -8 -71 -33 -32 -36 -37 -84 -12 -119 12
-18 13 -23 2 -26 -49 -16 -91 -27 -144 -40 l-61 -14 34 52 c34 51 154 291 189
377 17 43 22 47 57 52 25 3 51 17 71 35 60 57 93 64 141 32z m646 -305 c32
-66 78 -151 103 -190 l46 -70 -22 -15 c-12 -8 -42 -32 -66 -52 -35 -31 -51
-38 -86 -38 -36 0 -52 8 -104 50 -90 72 -169 79 -238 23 -124 -99 -144 -99
-268 0 -69 56 -148 49 -238 -23 -52 -43 -68 -50 -105 -50 -35 0 -50 6 -80 34
l-38 34 45 11 c365 90 692 248 890 429 l65 60 19 -41 c11 -23 46 -96 77 -162z
m-471 61 c28 -35 -11 -93 -47 -70 -36 22 -23 84 17 84 10 0 23 -7 30 -14z
m-350 -140 c28 -35 -11 -93 -47 -70 -36 22 -23 84 17 84 10 0 23 -7 30 -14z
m320 -346 c25 0 57 7 73 14 l27 15 0 -105 0 -104 -100 0 -100 0 0 104 0 105
28 -15 c15 -7 47 -14 72 -14z"/>
<path d="M714 2076 c-10 -26 4 -48 28 -44 17 2 23 10 23 28 0 18 -6 26 -23 28
-13 2 -25 -3 -28 -12z"/>
<path d="M866 1783 c-9 -21 16 -46 37 -37 9 3 17 17 17 30 0 19 -5 24 -24 24
-13 0 -27 -8 -30 -17z"/>
<path d="M722 1498 c-16 -16 -15 -33 4 -48 22 -19 54 12 38 37 -14 22 -27 26
-42 11z"/>
<path d="M913 1503 c-19 -7 -16 -50 3 -57 19 -7 44 10 44 30 0 16 -30 33 -47
27z"/>
<path d="M445 1335 c-19 -18 -25 -35 -25 -67 0 -55 20 -84 69 -99 76 -23 145
46 122 122 -15 49 -44 69 -99 69 -32 0 -49 -6 -67 -25z"/>
<path d="M713 1124 c-3 -8 2 -23 11 -32 15 -15 17 -15 32 0 21 21 11 48 -16
48 -11 0 -23 -7 -27 -16z"/>
<path d="M330 1115 c-18 -21 -5 -45 25 -45 20 0 25 5 25 24 0 13 -7 27 -16 30
-21 8 -20 8 -34 -9z"/>
<path d="M520 906 c-18 -22 -5 -48 22 -44 17 2 23 10 23 28 0 29 -26 38 -45
16z"/>
<path d="M904 905 c-9 -23 3 -45 26 -45 25 0 37 25 20 45 -16 19 -39 19 -46 0z"/>
<path d="M370 785 c-17 -20 -5 -45 20 -45 11 0 23 7 26 15 6 15 -11 45 -26 45
-4 0 -13 -7 -20 -15z"/>
<path d="M504 735 c-9 -23 3 -45 25 -45 21 0 33 22 25 45 -4 8 -15 15 -25 15
-11 0 -22 -7 -25 -15z"/>
<path d="M1070 755 c-17 -20 -5 -45 20 -45 11 0 23 7 26 15 6 15 -11 45 -26
45 -4 0 -13 -7 -20 -15z"/>
<path d="M1054 651 c-65 -28 -83 -110 -36 -162 24 -26 36 -32 72 -32 36 0 48
6 72 32 19 22 28 42 28 66 0 65 -78 120 -136 96z"/>
<path d="M853 583 c-18 -6 -16 -50 1 -56 8 -3 22 1 33 8 28 21 -1 62 -34 48z"/>
<path d="M730 436 c-18 -22 -5 -48 22 -44 17 2 23 10 23 28 0 29 -26 38 -45
16z"/>
<path d="M1220 436 c-18 -22 -5 -48 22 -44 17 2 23 10 23 28 0 29 -26 38 -45
16z"/>
</g>
</svg>
