<?xml version="1.0" standalone="no"?>
<!DOCTYPE svg PUBLIC "-//W3C//DTD SVG 20010904//EN"
 "http://www.w3.org/TR/2001/REC-SVG-20010904/DTD/svg10.dtd">
<svg version="1.0" xmlns="http://www.w3.org/2000/svg"
 width="211.000000pt" height="228.000000pt" viewBox="0 0 211.000000 228.000000"
 preserveAspectRatio="xMidYMid meet">

<g transform="translate(0.000000,228.000000) scale(0.100000,-0.100000)"
fill="#000000" stroke="none">
<path d="M0 1140 l0 -1140 1055 0 1055 0 0 1140 0 1140 -1055 0 -1055 0 0
-1140z m478 1068 c30 -30 0 -75 -42 -64 -29 7 -40 31 -26 57 12 21 50 25 68 7z
m1016 -10 c15 -24 -3 -52 -37 -56 -33 -4 -53 28 -37 59 14 25 58 23 74 -3z
m-640 -150 c24 -39 -44 -79 -74 -43 -21 25 3 67 37 63 14 -2 31 -11 37 -20z
m-92 -98 c41 -25 65 -25 106 0 31 19 50 20 477 20 l445 0 0 -361 0 -361 -25
-30 c-33 -39 -33 -87 0 -126 l25 -30 0 -366 0 -366 -40 0 -40 0 -2 778 -3 777
-584 3 c-461 2 -586 0 -593 -10 -4 -7 -8 -358 -8 -780 l0 -768 -35 0 -35 0 0
246 c0 231 1 247 20 271 25 33 25 73 0 106 -19 24 -20 40 -20 521 l0 496 140
0 c122 0 144 -3 172 -20z m306 -247 l3 -132 -38 -25 c-52 -34 -142 -56 -230
-56 -87 0 -134 17 -185 68 l-38 36 0 123 0 123 243 -2 242 -3 3 -132z m590
-25 l-3 -163 -40 -20 c-55 -27 -261 -29 -347 -2 l-58 18 0 164 0 165 225 0
225 0 -2 -162z m386 143 c23 -26 13 -59 -21 -67 -43 -11 -69 38 -37 70 21 21
37 20 58 -3z m-882 -238 l3 -248 248 -3 c210 -2 247 -5 247 -17 0 -13 -34 -15
-237 -15 -131 0 -244 -4 -251 -8 -9 -7 -12 -65 -10 -258 l3 -249 248 -3 c210
-2 247 -5 247 -17 0 -13 -34 -15 -234 -15 -129 0 -241 -3 -250 -6 -14 -5 -16
-33 -16 -210 0 -197 -1 -204 -20 -204 -19 0 -20 7 -20 200 0 187 -1 200 -19
210 -12 6 -117 10 -270 10 -216 0 -251 2 -251 15 0 13 35 15 258 15 187 0 261
3 270 12 17 17 17 479 0 496 -9 9 -83 12 -270 12 -223 0 -258 2 -258 15 0 13
35 15 258 15 187 0 261 3 270 12 9 9 12 78 12 250 0 231 1 238 20 238 19 0 20
-8 22 -247z m-539 -97 c53 -39 100 -49 211 -44 94 5 119 11 219 53 15 6 17 1
17 -49 l0 -56 -245 0 -245 0 0 60 c0 33 3 60 6 60 3 0 20 -11 37 -24z m823
-65 c62 -1 120 5 150 14 65 20 64 20 64 -15 l0 -30 -225 0 -225 0 0 33 0 33
68 -17 c41 -11 106 -18 168 -18z m-1178 -43 c35 -35 -15 -99 -53 -68 -30 25
-12 80 25 80 9 0 21 -5 28 -12z m802 -268 c0 -120 -2 -131 -22 -150 -26 -23
-24 -23 -153 -25 -55 0 -118 -5 -140 -9 -36 -7 -48 -4 -108 29 l-67 37 0 124
0 124 245 0 245 0 0 -130z m590 -24 l0 -153 -47 -14 c-27 -8 -88 -14 -138 -13
-95 1 -145 15 -222 60 l-43 25 0 124 0 125 225 0 225 0 0 -154z m204 95 c31
-34 0 -80 -45 -66 -27 9 -34 43 -13 66 9 10 22 19 29 19 7 0 20 -9 29 -19z
m-1434 -261 c8 -14 8 -26 0 -40 -19 -35 -80 -20 -80 20 0 40 61 55 80 20z
m216 -21 c50 -29 60 -31 107 -24 29 4 99 8 157 9 58 1 118 5 133 10 28 8 28 8
25 -25 l-3 -34 -242 -3 -243 -2 0 50 c0 27 2 50 5 50 3 0 30 -14 61 -31z m719
-34 c73 -19 161 -19 238 -1 l57 13 0 -23 0 -24 -225 0 -225 0 0 50 0 49 48
-24 c27 -13 75 -31 107 -40z m685 -105 c8 -14 8 -26 0 -40 -19 -35 -80 -20
-80 20 0 40 61 55 80 20z m-980 -204 l0 -133 -37 -7 c-68 -11 -109 -6 -189 20
-68 22 -92 25 -171 22 l-93 -4 0 118 0 118 245 0 245 0 0 -134z m590 46 c0
-86 -1 -89 -32 -120 -75 -71 -171 -81 -323 -31 l-95 32 0 103 0 104 225 0 225
0 0 -88z m-1522 -8 c14 -25 3 -53 -24 -60 -42 -11 -72 34 -42 64 17 17 55 15
66 -4z m1162 -194 c120 -42 214 -42 296 0 32 16 60 30 62 30 1 0 2 -22 2 -50
l0 -50 -225 0 -225 0 0 50 c0 28 1 50 3 50 2 0 41 -13 87 -30z m-464 -16 c67
-22 91 -25 157 -21 71 5 77 4 77 -14 0 -18 -11 -19 -245 -19 l-245 0 0 34 c0
40 6 42 111 45 48 1 89 -6 145 -25z m1014 -179 l0 -75 -131 0 -130 0 -26 30
c-20 25 -32 30 -67 30 -41 0 -86 -26 -86 -50 0 -6 -192 -10 -515 -10 l-515 0
0 75 0 75 735 0 735 0 0 -75z m-316 -87 c14 -23 -3 -52 -33 -56 -42 -6 -67 38
-39 66 17 17 58 11 72 -10z"/>
<path d="M819 1721 c-38 -39 -39 -80 0 -123 22 -25 36 -32 66 -32 47 0 95 48
95 95 0 45 -47 89 -95 89 -27 0 -44 -8 -66 -29z m103 -46 c8 -19 8 -28 -2 -40
-25 -30 -80 -12 -80 25 0 44 63 55 82 15z"/>
<path d="M1451 1154 c-26 -21 -31 -33 -31 -69 0 -36 5 -48 31 -69 17 -15 43
-26 59 -26 16 0 42 11 59 26 43 36 44 93 2 135 -37 37 -79 38 -120 3z m89 -38
c28 -35 -11 -93 -47 -70 -36 22 -23 84 17 84 10 0 23 -7 30 -14z"/>
<path d="M839 621 c-31 -31 -36 -64 -18 -104 41 -90 191 -45 175 52 -12 79
-101 108 -157 52z m101 -41 c8 -14 8 -26 0 -40 -19 -35 -80 -20 -80 20 0 40
61 55 80 20z"/>
</g>
</svg>
